<?xml version="1.0" encoding="utf-8"?>
<!-- Generator: Adobe Illustrator 25.4.1, SVG Export Plug-In . SVG Version: 6.00 Build 0)  -->
<svg version="1.1" id="图层_1" xmlns="http://www.w3.org/2000/svg" xmlns:xlink="http://www.w3.org/1999/xlink" x="0px" y="0px"
	 viewBox="0 0 1024 1024" style="enable-background:new 0 0 1024 1024;" xml:space="preserve">
<style type="text/css">
	.st0{fill:url(#SVGID_1_);}
	.st1{fill:url(#SVGID_00000084521603186076672780000000594646777349775002_);}
</style>
<linearGradient id="SVGID_1_" gradientUnits="userSpaceOnUse" x1="48.9214" y1="424.1395" x2="975.9214" y2="424.1395">
	<stop  offset="2.237672e-07" style="stop-color:#FFFF00"/>
	<stop  offset="0.5021" style="stop-color:#ED9FDF"/>
</linearGradient>
<path class="st0" d="M328.6,196.72c-0.32-2.14-0.76-5.25-1.19-9.02c-2.21-19.37-0.66-24.62,0-26.59c1.96-5.81,5.04-9.26,5.7-9.97
	c1.62-1.77,5.72-5.74,12.11-7.36c2.14-0.54,5.36-1.32,9.02-0.24c2.13,0.63,3.87,1.73,4.51,2.14c0.12,0.08,2.13,1.38,3.88,3.24
	c4.02,4.29,5.39,10.22,5.54,10.92c1.72,7.83-1.96,10.09-3.17,22.32c-0.58,5.87,0.38,4.26,0.16,17.25
	c-0.18,10.34-0.8,12.11-0.48,18.68c0.09,1.92,0.4,7,2.22,16.14c2.35,11.88,5.12,19.9,7.28,26.75c3.76,11.93,2.51,10.29,8.86,34.03
	c1.04,3.9,6.18,23,13.77,47.48c5.48,17.68,10.06,31.13,11.71,35.93c1.8,5.25,14.05,40.68,30.47,76.6c0,0,4.86,10.63,17.09,29.44
	c1.83,2.82,5.1,7.73,10.68,12.82c3.01,2.75,6.12,5.58,10.92,7.83c6.14,2.88,11.4,3.11,21.6,3.56c4.84,0.21,7.64,0.34,11.63-0.24
	c5.42-0.78,9.31-2.3,14.24-4.27c3-1.2,8.47-3.38,14.24-6.88c3.32-2.01,10.16-6.54,20.65-18.52c4.25-4.85,10.2-12.18,18.87-25.88
	c4.6-7.26,12.09-19.18,20.06-36.08c7.88-16.71,12.33-30.97,21.25-59.47c5.76-18.42,3.98-14.58,15.19-53.77
	c1.51-5.28,4.45-15.51,7-29.32c0.68-3.67,1.44-7.85,2.14-13.41c1.81-14.53,2.91-23.36,0.71-33.59c-1.77-8.25-5.04-14.46-9.5-22.91
	c-3.73-7.08-6.86-11.44-9.97-20.3c-1.75-4.98-2.67-9.01-3.21-11.99c-0.2-1.11-1.14-6.47-1.19-11.87c-0.02-3.05,0.23-7.53,5.58-24.57
	c3.73-11.88,6.21-18,10.8-24.33c2.74-3.78,5.37-6.45,8.78-6.65c2.17-0.12,4.9,0.75,8.31,4.27c8.73,9.02,11.05,24.12,12.46,32.64
	c4.05,24.49,3.92,15,8.43,43.44c2.47,15.6,4.02,27.99,4.87,35.14c2.06,17.36,2.75,27.34,4.04,42.02c2.7,30.84,3.22,27.51,7.72,72.53
	c3.07,30.68,3.46,38.53,6.29,57.45c2.55,17.02,3.89,25.77,7.12,37.75c5.32,19.71,11.76,33.38,20.3,51.52
	c6.17,13.11,13.05,27.57,24.69,45.58c11.18,17.3,21.19,29.26,26.94,36.08c9.19,10.91,15.46,18.27,25.76,26.83
	c2.84,2.36,11.66,9.53,24.45,16.74c9.03,5.09,16.29,9.1,26.83,11.28c5.81,1.2,10.96,1.49,14.13,1.66c7.46,0.4,12.67,0.68,19.23-0.71
	c3.24-0.69,12.84-2.84,21.72-10.45c4.67-4,7.48-8.09,10.33-12.23c2.25-3.27,7.18-10.95,12.7-18.04c0.89-1.15,2.48-3.13,5.22-4.51
	c2.74-1.38,5.29-1.47,7.72-1.54c1.34-0.04,5.51-0.12,9.5,1.31c7.12,2.55,10.74,8.91,13.65,14.01c4.71,8.26,5.78,15.79,6.3,19.7
	c0.55,4.18,1.59,12.71-1.31,23.03c-4.93,17.55-17.56,27.03-20.42,29.08c-9.1,6.52-17.79,8.31-25.05,9.73
	c-20.29,3.97-37.39,0.44-46.29-1.78c-49.56-12.34-94.12-45.84-105.17-54.36c-19.52-15.06-41.56-32.31-64.1-61.61
	c-4.86-6.32-39.97-52.61-47.72-94.49c-5.91-31.94-6.17-38.06-6.17-38.06c-0.42-9.74-1.55-15.41-3.8-26.75
	c-1.92-9.67-3.98-14.24-6.17-14.48c-4.73-0.51-9.8,20-20.09,51.62c-8.37,25.71-12.55,38.56-17,48c-7.93,16.82-20.73,43.95-50,62
	c-8.31,5.12-33.1,19.91-66,16c-7.82-0.93-31.1-4.73-50.92-22.13c-19.4-17.03-29.63-42.13-46.21-82.93
	c-1.51-3.72-17.9-44.05-26.11-72.01c-2.81-9.56-7.27-18.63-9.5-28.34c-0.9-3.9-1.88-8.92-6.17-12.34
	c-3.64-2.91-9.53-4.56-13.77-2.37c-4.92,2.53-5.75,9.23-6.81,16.3c-1.76,11.79-4.69,23.38-6.65,35.14
	c-3.48,20.89-15.28,76.17-33.87,135.48c-15.9,50.71-28.95,79.45-51.91,130.02c-3.55,7.81-14.89,32.27-37.51,56.5
	c-16.39,17.56-29.34,24.97-40.12,29.2c-5.99,2.35-16.08,6.21-29.68,6.17c-22.72-0.06-39.11-10.92-44.87-15.19
	c-14.72-10.9-20.47-23.52-30.86-46.29c-0.96-2.11-11.6-25.9-12.11-50.8c-0.13-6.31,0.38-13.41,4.75-20.18
	c1.84-2.85,5.25-8.69,11.16-10.21c8.09-2.07,16.38,6.75,23.5,14.48c24.97,27.11,25.73,39.09,39.41,46.53
	c15.18,8.26,32.14,3.29,38.93,1.42c16.76-4.6,29.14-16.12,41.78-33.71c34.68-48.24,49.39-109,56.98-139.12
	c17.98-71.43,13.17-59.36,31.34-127.72c9.41-35.39,17.03-61.6,23.74-101.61C325.06,234.25,327.36,211.78,328.6,196.72z"/>
<linearGradient id="SVGID_00000102520809778181134880000005112523518249701537_" gradientUnits="userSpaceOnUse" x1="373.3766" y1="788.2555" x2="641.3766" y2="788.2555">
	<stop  offset="2.237672e-07" style="stop-color:#FFFF00"/>
	<stop  offset="0.5021" style="stop-color:#ED9FDF"/>
</linearGradient>
<path style="fill:url(#SVGID_00000102520809778181134880000005112523518249701537_);" d="M375.58,749.04
	c-2.93,8.6-2.47,16.51-1.27,24.2c1.38,8.84,3.5,21.66,11.89,36.94c14.13,25.72,35.2,38.7,45.01,44.58
	c18.36,11,34.73,14.88,40.76,16.13c8.47,1.77,30.61,5.46,57.74-1.27c7.37-1.83,29.75-8.06,52.22-26.32
	c18.95-15.4,27.38-30.74,42.46-58.17c0,0,16.56-30.05,16.98-57.32c0.06-4.17-0.36-10.41-4.25-16.13c-1.03-1.51-5.01-7.38-11.46-8.49
	c-4.51-0.78-9.89,0.83-16.98,7.22c-16.54,14.9-19.97,35.64-30.15,54.35c-4.28,7.88-21.11,36.26-52.22,46.71
	c-28.38,9.53-54.27-0.69-61.14-3.4c-23.08-9.11-47.73-29.54-54.77-47.13c-0.24-0.59-3.63-9.13-11.46-17.41
	c-4.13-4.37-8.46-8.84-13.16-8.07C379.89,736.42,376.95,745.02,375.58,749.04z"/>
</svg>
